<?xml version="1.0" encoding="UTF-8" standalone="no"?>
<svg width="512px" height="512px" viewBox="0 0 512 512" version="1.1" xmlns="http://www.w3.org/2000/svg" xmlns:xlink="http://www.w3.org/1999/xlink" xmlns:sketch="http://www.bohemiancoding.com/sketch/ns">
    <!-- Generator: Sketch 3.0.4 (8054) - http://www.bohemiancoding.com/sketch -->
    <title>shopping100 2</title>
    <desc>Created with Sketch.</desc>
    <defs></defs>
    <g id="Page-1" stroke="none" stroke-width="1" fill="none" fill-rule="evenodd" sketch:type="MSPage">
        <g id="shopping100-2" sketch:type="MSLayerGroup" fill="#FFFFFF">
            <g id="Group" sketch:type="MSShapeGroup">
                <path d="M448,384 L181.531,384 L69.531,128 L0,128 L0,96 L90.469,96 L202.469,352 L448,352 L448,384 Z" id="Shape"></path>
                <path d="M288,464 C288,490.5 266.5,512 240,512 C213.469,512 192,490.5 192,464 C192,437.5 213.469,416 240,416 C266.5,416 288,437.5 288,464 L288,464 Z" id="Shape"></path>
                <path d="M448,464 C448,490.5 426.5,512 400,512 C373.5,512 352,490.5 352,464 C352,437.5 373.5,416 400,416 C426.5,416 448,437.5 448,464 L448,464 Z" id="Shape"></path>
                <path d="M400,0 C338.156,0 288,50.156 288,112 C288,173.844 338.156,224 400,224 C461.844,224 512,173.844 512,112 C512,50.156 461.844,0 400,0 L400,0 Z M464,128 L416,128 L416,176 L384,176 L384,128 L336,128 L336,96 L384,96 L384,48 L416,48 L416,96 L464,96 L464,128 L464,128 Z" id="Shape"></path>
                <path d="M400,256 C337.5,256 284.719,215.75 264.844,160 L160,160 L224,320 L448,320 L484.938,227.687 C461.063,245.25 431.844,256 400,256 L400,256 Z" id="Shape"></path>
            </g>
        </g>
    </g>
</svg>