<?xml version="1.0" encoding="UTF-8" standalone="no"?>
<svg width="89px" height="83px" viewBox="0 0 89 83" version="1.1" xmlns="http://www.w3.org/2000/svg" xmlns:xlink="http://www.w3.org/1999/xlink" xmlns:sketch="http://www.bohemiancoding.com/sketch/ns">
    <!-- Generator: Sketch 3.0.4 (8054) - http://www.bohemiancoding.com/sketch -->
    <title>dropbox19</title>
    <desc>Created with Sketch.</desc>
    <defs></defs>
    <g id="Page-1" stroke="none" stroke-width="1" fill="none" fill-rule="evenodd" sketch:type="MSPage">
        <g id="dropbox19" sketch:type="MSLayerGroup" transform="translate(1.035156, -0.121094)" fill="#333333">
            <g id="Group" sketch:type="MSShapeGroup">
                <path d="M23.17,0.578 L0.512,15.328 C-0.414,15.931 -0.465,16.978 0.398,17.667 L16.777,30.751 L43,14.615 L26.383,0.767 C25.534,0.06 24.096,-0.024 23.17,0.578 L23.17,0.578 Z" id="Shape"></path>
                <path d="M59.773,64.033 L43.106,50.234 L43.106,50.126 L43.053,50.18 L43,50.126 L43,50.234 L26.385,64.03 C25.535,64.736 24.097,64.818 23.172,64.214 L17.044,60.211 L17.044,63.944 C17.044,65.049 17.812,66.404 18.76,66.972 C18.76,66.972 43.001,81.509 43.001,81.524 C43.001,81.539 43.013,81.539 43.028,81.524 C43.043,81.509 43.066,81.509 43.081,81.524 C43.096,81.539 43.108,81.539 43.108,81.524 C43.108,81.509 67.401,66.97 67.401,66.97 C68.349,66.403 69.118,65.048 69.118,63.944 L69.118,60.211 L62.99,64.214 C62.063,64.818 60.623,64.737 59.773,64.033 L59.773,64.033 Z" id="Shape"></path>
                <path d="M0.512,46.228 L23.169,60.978 C24.095,61.581 25.533,61.496 26.382,60.789 L43,46.941 L16.778,30.751 L0.397,43.886 C-0.465,44.577 -0.413,45.626 0.512,46.228 L0.512,46.228 Z" id="Shape"></path>
                <path d="M85.489,15.327 L62.882,0.58 C61.957,-0.024 60.518,0.059 59.669,0.765 L43,14.615 L69.222,30.751 L85.601,17.667 C86.464,16.978 86.414,15.93 85.489,15.327 L85.489,15.327 Z" id="Shape"></path>
                <path d="M85.603,43.886 L69.222,30.751 L44.702,45.89 C43.762,46.47 43.689,47.513 44.539,48.219 L59.669,60.791 C60.519,61.497 61.957,61.58 62.882,60.976 L85.489,46.23 C86.414,45.626 86.465,44.577 85.603,43.886 L85.603,43.886 Z" id="Shape"></path>
            </g>
        </g>
    </g>
</svg>