<?xml version="1.0" encoding="UTF-8" standalone="no"?>
<svg width="61px" height="60px" viewBox="0 0 61 60" version="1.1" xmlns="http://www.w3.org/2000/svg" xmlns:xlink="http://www.w3.org/1999/xlink" xmlns:sketch="http://www.bohemiancoding.com/sketch/ns">
    <!-- Generator: Sketch 3.0.4 (8054) - http://www.bohemiancoding.com/sketch -->
    <title>Fill 80</title>
    <desc>Created with Sketch.</desc>
    <defs></defs>
    <g id="Page-1" stroke="none" stroke-width="1" fill="none" fill-rule="evenodd" sketch:type="MSPage">
        <g id="496445371" sketch:type="MSLayerGroup" transform="translate(-656.000000, -53.000000)" fill="#FFFFFF">
            <g id="Fill-80" transform="translate(657.000000, 54.000000)" sketch:type="MSShapeGroup">
                <path d="M-0.231682927,58.3429877 L27.9264268,15.7824444 L20.4917073,4.53330864 L21.710561,3.72918519 L28.7927195,14.4348395 L28.7927195,-0.0701728395 L30.2475732,-0.0701728395 L30.2475732,14.4348395 L37.3290122,3.72918519 L38.5485854,4.53330864 L31.1138659,15.7738519 L59.2719756,58.3429877 L-0.231682927,58.3429877 L-0.231682927,58.3429877 Z M28.7927195,56.8872593 L28.7927195,45.4705679 L24.1417927,50.0905185 L18.7670366,44.7423457 L13.393,50.0905185 L9.52418293,46.240321 L2.47656098,56.8872593 L28.7927195,56.8872593 L28.7927195,56.8872593 Z M56.5637317,56.8872593 L49.5153902,46.240321 L45.6472927,50.0905185 L40.2732561,44.7423457 L34.8985,50.0905185 L30.2475732,45.4705679 L30.2475732,56.8872593 L56.5637317,56.8872593 L56.5637317,56.8872593 Z M13.393,48.0318765 L18.7670366,42.6829877 L24.1417927,48.0318765 L28.7927195,43.4112099 L28.7927195,17.1128642 L10.3401098,45.0015556 L13.393,48.0318765 L13.393,48.0318765 Z M34.8985,48.0318765 L40.2732561,42.6829877 L45.6472927,48.0318765 L48.7001829,45.0015556 L30.2475732,17.1128642 L30.2475732,43.4112099 L34.8985,48.0318765 L34.8985,48.0318765 Z"></path>
            </g>
        </g>
    </g>
</svg>