<?xml version="1.0" encoding="UTF-8" standalone="no"?>
<svg width="86px" height="88px" viewBox="0 0 86 88" version="1.1" xmlns="http://www.w3.org/2000/svg" xmlns:xlink="http://www.w3.org/1999/xlink" xmlns:sketch="http://www.bohemiancoding.com/sketch/ns">
    <!-- Generator: Sketch 3.0.4 (8054) - http://www.bohemiancoding.com/sketch -->
    <title>paypal</title>
    <desc>Created with Sketch.</desc>
    <defs></defs>
    <g id="Page-1" stroke="none" stroke-width="1" fill="none" fill-rule="evenodd" sketch:type="MSPage">
        <g id="paypal" sketch:type="MSLayerGroup" transform="translate(0.000000, 0.500000)" fill="#333333">
            <path d="M77.275,17.176 C78.638,19.74 79.314,22.92 79.314,26.733 C79.314,35.399 75.662,42.385 68.369,47.692 C61.07,53.004 50.877,55.653 37.779,55.653 L34.713,55.653 C32.406,55.653 30.104,57.465 29.584,59.674 L25.902,75.369 C25.39,77.588 23.082,79.4 20.779,79.4 L14.074,79.4 L13.474,81.964 C12.953,84.188 14.414,86 16.717,86 L27.463,86 C29.768,86 32.076,84.188 32.586,81.969 L36.27,66.274 C36.79,64.065 39.092,62.253 41.399,62.253 L44.465,62.253 C57.563,62.253 67.756,59.605 75.053,54.292 C82.348,48.984 86,41.998 86,33.332 C86,29.52 85.322,26.34 83.961,23.775 C82.604,21.228 80.631,19.146 78.059,17.558 C77.783,17.393 77.561,17.332 77.275,17.176 L77.275,17.176 Z M19.217,68.77 L22.9,53.074 C23.42,50.865 25.72,49.053 28.027,49.053 L31.093,49.053 C44.193,49.053 54.386,46.405 61.683,41.092 C68.978,35.785 72.628,28.799 72.628,20.133 C72.628,16.321 71.952,13.141 70.589,10.576 C69.234,8.029 67.259,5.947 64.689,4.361 C62.054,2.75 58.959,1.631 55.375,0.976 C51.779,0.326 47.576,0 42.744,0 L20.367,0 C18.056,0 15.754,1.801 15.23,4.021 L0.105,68.768 C-0.416,70.989 1.044,72.799 3.347,72.799 L14.093,72.799 C16.396,72.799 18.705,70.988 19.217,68.77 L19.217,68.77 Z M27.992,31.201 L31.221,17.457 C31.744,15.244 34.051,13.434 36.346,13.434 L39.864,13.434 C43.964,13.434 47.071,14.122 49.155,15.496 C51.237,16.857 52.282,18.951 52.282,21.793 C52.282,26.092 50.657,29.41 47.432,31.738 C44.203,34.062 39.713,35.238 33.912,35.238 L31.25,35.238 C28.943,35.238 27.484,33.418 27.992,31.201 L27.992,31.201 Z" id="Shape" sketch:type="MSShapeGroup"></path>
        </g>
    </g>
</svg>