<?xml version="1.0" encoding="UTF-8" standalone="no"?>
<svg width="86px" height="71px" viewBox="0 0 86 71" version="1.1" xmlns="http://www.w3.org/2000/svg" xmlns:xlink="http://www.w3.org/1999/xlink" xmlns:sketch="http://www.bohemiancoding.com/sketch/ns">
    <!-- Generator: Sketch 3.0.4 (8054) - http://www.bohemiancoding.com/sketch -->
    <title>social19 2</title>
    <desc>Created with Sketch.</desc>
    <defs></defs>
    <g id="Page-1" stroke="none" stroke-width="1" fill="none" fill-rule="evenodd" sketch:type="MSPage">
        <g id="social19-2" sketch:type="MSLayerGroup" fill="#FFFFFF">
            <path d="M86.005375,8.58923077 C82.8395,9.99461538 79.4425,10.9476923 75.8735,11.3730769 C79.51775,9.18692308 82.307375,5.71923077 83.629625,1.6 C80.2165,3.62461538 76.437875,5.09461538 72.417375,5.89153846 C69.203125,2.45076923 64.61825,0.307692308 59.54425,0.307692308 C49.799375,0.307692308 41.898125,8.22307692 41.898125,17.98 C41.898125,19.3638462 42.054,20.7153846 42.355,22.0076923 C27.692,21.27 14.689875,14.2323077 5.98775,3.53846154 C4.466625,6.14461538 3.60125,9.18153846 3.60125,12.4230769 C3.60125,18.5561538 6.71875,23.9676923 11.44875,27.1338462 C8.557,27.0369231 5.83725,26.24 3.456125,24.9153846 L3.456125,25.1361538 C3.456125,33.6976923 9.540625,40.8430769 17.6085,42.4692308 C16.130375,42.8676923 14.571625,43.0884615 12.959125,43.0884615 C11.819625,43.0884615 10.71775,42.9753846 9.637375,42.7653846 C11.884125,49.7869231 18.398625,54.8969231 26.117125,55.0423077 C20.081,59.7807692 12.47,62.6023077 4.20325,62.6023077 C2.778875,62.6023077 1.376,62.5161538 -0.005375,62.36 C7.8045,67.3784615 17.076375,70.3076923 27.041625,70.3076923 C59.495875,70.3076923 77.244125,43.3738462 77.244125,20.0153846 L77.185,17.7269231 C80.6465,15.2446154 83.64575,12.1323077 86.005375,8.58923077 L86.005375,8.58923077 Z" id="Shape" sketch:type="MSShapeGroup"></path>
        </g>
    </g>
</svg>